<?xml version="1.0" standalone="no"?>
<!DOCTYPE svg PUBLIC "-//W3C//DTD SVG 20010904//EN"
 "http://www.w3.org/TR/2001/REC-SVG-20010904/DTD/svg10.dtd">
<svg version="1.0" xmlns="http://www.w3.org/2000/svg"
 width="500.000000pt" height="500.000000pt" viewBox="0 0 500.000000 500.000000"
 preserveAspectRatio="xMidYMid meet">
<metadata>
Created by potrace 1.14, written by Peter Selinger 2001-2017
</metadata>
<g transform="translate(0.000000,500.000000) scale(0.100000,-0.100000)"
fill="#000000" stroke="none">
<path d="M2475 4900 c-11 -4 -29 -17 -39 -29 -18 -20 -20 -40 -21 -274 -1
-259 3 -299 38 -329 30 -27 89 -23 117 7 24 26 24 27 26 287 2 255 -3 305 -31
328 -17 14 -65 20 -90 10z"/>
<path d="M992 4365 c-42 -35 -46 -77 -12 -123 15 -20 104 -112 198 -204 158
-156 173 -168 207 -168 27 0 44 8 67 30 26 27 30 36 24 68 -5 32 -33 65 -199
229 -213 213 -224 219 -285 168z"/>
<path d="M3908 4363 c-47 -39 -320 -312 -346 -347 -32 -42 -28 -82 12 -122 19
-19 41 -34 48 -34 8 0 33 13 55 29 47 34 343 330 368 367 35 54 -10 134 -76
134 -15 0 -42 -12 -61 -27z"/>
<path d="M2370 3969 c-109 -13 -145 -21 -248 -55 -376 -123 -679 -425 -800
-799 -40 -122 -54 -217 -55 -360 -2 -242 34 -392 150 -628 69 -139 155 -331
198 -437 20 -52 44 -109 51 -126 46 -106 105 -321 129 -467 8 -54 24 -115 34
-135 39 -76 112 -127 198 -138 78 -9 456 -11 490 -2 17 5 43 23 58 40 37 43
31 107 -11 143 -16 14 -33 26 -39 26 -5 1 -113 2 -239 3 -273 3 -254 -7 -280
148 -37 229 -171 596 -348 958 -143 293 -168 372 -173 550 -8 281 94 544 289
748 155 163 395 285 604 307 146 15 177 26 206 67 33 47 10 125 -45 153 -30
16 -64 17 -169 4z"/>
<path d="M2890 3853 c-30 -20 -47 -43 -79 -103 -13 -25 -37 -60 -55 -79 -33
-35 -117 -81 -151 -81 -39 0 -95 -21 -125 -47 -63 -53 -82 -136 -48 -215 29
-67 87 -102 203 -122 166 -29 316 -111 432 -236 85 -91 166 -254 192 -384 19
-93 22 -118 22 -200 1 -174 -77 -344 -224 -488 -149 -146 -314 -221 -502 -227
-89 -3 -139 -17 -172 -50 -47 -47 -57 -70 -57 -136 0 -126 72 -183 238 -191
52 -2 105 -8 119 -13 42 -16 94 -69 138 -139 63 -101 86 -122 132 -122 48 0
209 65 248 101 43 40 46 71 16 184 -29 114 -28 159 9 216 24 39 145 163 201
206 46 35 117 40 231 14 52 -12 105 -18 120 -15 40 10 79 51 99 103 9 25 20
51 23 56 11 15 31 81 35 113 6 47 -27 87 -112 137 -95 55 -102 61 -133 105
-23 33 -25 45 -28 185 -3 88 0 164 7 185 16 53 71 111 137 145 73 38 120 84
126 124 4 28 -41 155 -84 238 -28 56 -84 69 -175 42 -111 -33 -167 -32 -232 1
-96 49 -189 144 -235 241 -16 34 -16 43 -1 140 24 151 24 161 10 194 -15 38
-40 55 -149 100 -94 39 -139 43 -176 18z"/>
<path d="M2291 3001 c-55 -22 -68 -47 -53 -99 14 -46 10 -72 -18 -110 -34 -46
-77 -65 -139 -64 -86 1 -97 -3 -115 -48 -25 -63 -21 -76 34 -116 27 -19 51
-43 54 -52 25 -84 12 -133 -54 -193 -56 -51 -58 -68 -21 -134 18 -32 37 -36
110 -22 42 7 77 -10 119 -58 39 -44 47 -71 34 -130 -11 -53 -3 -66 55 -90 54
-23 70 -19 100 26 36 54 92 83 152 76 41 -4 52 -12 98 -63 l52 -58 40 14 c61
20 84 46 76 84 -15 70 -14 82 8 121 38 67 117 100 182 75 22 -8 30 -6 50 14
25 25 47 89 39 110 -3 8 -25 28 -49 45 -85 61 -86 152 -4 231 27 26 49 56 49
66 0 10 -9 39 -20 63 l-20 44 -53 -6 c-127 -13 -200 60 -194 192 2 54 2 55
-38 78 -22 12 -49 23 -60 23 -11 0 -41 -24 -70 -56 -49 -55 -53 -57 -109 -62
l-58 -5 -57 62 c-31 33 -61 61 -66 60 -6 0 -30 -8 -54 -18z m365 -273 c64 -31
121 -91 152 -158 33 -71 35 -182 4 -252 -29 -66 -93 -132 -155 -159 -74 -33
-192 -33 -264 0 -62 27 -126 93 -156 159 -33 72 -30 190 4 258 46 88 102 136
197 170 55 19 162 10 218 -18z"/>
<path d="M543 2930 c-129 -5 -145 -7 -164 -27 -42 -42 -26 -122 28 -140 15 -5
145 -9 288 -9 235 1 263 3 287 19 33 22 42 48 34 90 -11 56 -37 65 -192 69
-76 2 -203 1 -281 -2z"/>
<path d="M4068 2927 c-55 -15 -82 -66 -62 -116 25 -60 23 -60 322 -60 301 0
310 1 331 60 12 36 3 65 -32 97 -24 23 -28 23 -276 25 -138 1 -265 -2 -283 -6z"/>
<path d="M1918 618 c-47 -9 -78 -50 -78 -101 1 -46 11 -64 53 -91 25 -17 66
-18 610 -18 647 0 634 -1 662 64 29 70 -19 147 -93 149 -231 4 -1129 2 -1154
-3z"/>
<path d="M2183 228 c-23 -11 -53 -64 -53 -94 0 -10 5 -32 12 -51 22 -59 38
-62 376 -60 l302 2 27 28 c24 23 28 36 27 78 0 40 -6 55 -27 77 l-27 27 -308
2 c-204 1 -314 -2 -329 -9z"/>
</g>
</svg>
